<?xml version="1.0" encoding="iso-8859-1"?>
<!-- Generator: Adobe Illustrator 19.0.0, SVG Export Plug-In . SVG Version: 6.00 Build 0)  -->
<svg version="1.1" id="Capa_1" xmlns="http://www.w3.org/2000/svg" xmlns:xlink="http://www.w3.org/1999/xlink" x="0px" y="0px"
	 viewBox="0 0 435.766 435.766" style="enable-background:new 0 0 435.766 435.766;" xml:space="preserve">
<g>
	<g>
		<path d="M419.742,81.883h-15.86c-12.73,0-24.942-5.054-33.942-14.058l-19.883-19.883c-9.004-9-21.211-14.058-33.942-14.058
			h-76.117c-7.61,0.633-14.73,2.805-22.871,8.222l-0.106,0.086c-5.758,3.859-39.906,38.574-44.828,43.496
			c-22.715,22.715-16.207,85.187,28.836,91.527c29.672,4.141,54.969-18.746,54.969-47.332v-14.324c0-20.832,13.414-38.426,32-45.05
			v17.5c-9.519,5.554-16,15.762-16,27.55v14.324c0,35.289-28.711,64-64,64c-1.734,0-3.477-0.359-5.218-0.5
			c-29.386,17.106-81.141,47.488-101.133,60.875c-1.801,1.129-3.5,2.351-5.199,3.617c-22.996,17.125-36.722,46.035-31.246,78.016
			c1.086,6.336,3.176,12.344,5.734,18.114l-0.183-0.121H24c-13.254,0-24,10.746-24,24s10.746,24,24,24h199.762
			c7.278,0,13.383-4.817,15.484-11.285c5.199-16-18.832-35.222-40.258-36.512c5.582-9.496,9.012-20.414,9.012-32.203
			c0-16.95-6.562-32.922-18.477-44.981l11.383-11.246C215.184,280.105,224,299.965,224,321.882c0,5.566-0.953,10.832-2.195,15.992
			c12.664,0,29.234,0,34.195,0v48.008c0,8.836,7.164,16,16,16h32h27.527c12.274,0,20.199-13.383,14.004-23.977
			c-7.375-12.617-20.398-21.531-35.606-23.426l3.558-28.465c19.23-11.809,33.406-31.422,37.305-54.129
			c5.453-31.778-8.074-60.473-30.789-77.641v-32.363h48c17.602,0,39.41-12.348,48.465-27.442l16.996-28.328
			C439.859,95.449,432.179,81.883,419.742,81.883z M336,93.883c-6.625,0-12-5.371-12-12c0-6.625,5.375-12,12-12
			c6.625,0,12,5.375,12,12C348,88.512,342.625,93.883,336,93.883z"/>
	</g>
</g>
<g>
</g>
<g>
</g>
<g>
</g>
<g>
</g>
<g>
</g>
<g>
</g>
<g>
</g>
<g>
</g>
<g>
</g>
<g>
</g>
<g>
</g>
<g>
</g>
<g>
</g>
<g>
</g>
<g>
</g>
</svg>
